<svg width="169" height="36" viewBox="0 0 169 36" fill="none" xmlns="http://www.w3.org/2000/svg">
<path d="M110.88 30.3785C109.68 30.3785 108.708 29.4167 108.708 28.2287C108.708 22.9631 104.376 18.6772 99.0543 18.6772C93.7327 18.6772 89.4011 22.9631 89.4011 28.2287C89.4011 29.4167 88.4292 30.3785 87.2287 30.3785C86.0279 30.3785 85.056 29.4167 85.056 28.2287C85.056 20.5916 91.3358 14.3777 99.0543 14.3777C106.773 14.3777 113.053 20.5916 113.053 28.2287C113.053 29.4167 112.081 30.3785 110.88 30.3785Z" fill="white"/>
<path d="M144.293 30.3785C143.731 30.3785 143.168 30.1682 142.738 29.7496L130.768 18.0485C129.909 17.209 129.909 15.8468 130.768 15.0073C131.627 14.1678 133.018 14.1678 133.879 15.0073L144.293 25.1877L154.707 15.0073C155.566 14.1678 156.957 14.1678 157.818 15.0073C158.677 15.8468 158.677 17.209 157.818 18.0485L145.849 29.7496C145.418 30.1682 144.856 30.3785 144.293 30.3785Z" fill="white"/>
<path d="M121.759 30.3785C120.533 30.3785 119.54 29.417 119.54 28.2293V16.1865C119.54 14.9988 120.533 14.0372 121.759 14.0372C122.986 14.0372 123.978 14.9988 123.978 16.1865V28.2293C123.978 29.417 122.986 30.3785 121.759 30.3785Z" fill="white"/>
<path d="M121.932 10.8494C123.547 10.8494 124.857 9.54001 124.857 7.92472C124.857 6.30944 123.547 5 121.932 5C120.317 5 119.007 6.30944 119.007 7.92472C119.007 9.54001 120.317 10.8494 121.932 10.8494Z" fill="white"/>
<path d="M161.485 30.3476C163.101 30.3476 164.41 29.0382 164.41 27.4229C164.41 25.8076 163.101 24.4982 161.485 24.4982C159.87 24.4982 158.561 25.8076 158.561 27.4229C158.561 29.0382 159.87 30.3476 161.485 30.3476Z" fill="white"/>
<path d="M71.3414 31.0607C70.1768 31.0607 69.0119 30.8343 67.9 30.3816C65.6348 29.4602 63.8624 27.7071 62.9093 25.4458C61.9564 23.1845 61.938 20.69 62.8588 18.415C63.775 16.1422 65.522 14.3637 67.7735 13.4074C70.0247 12.4512 72.5132 12.4328 74.7806 13.3566C77.0457 14.2782 78.8181 16.0313 79.7713 18.2925C80.2178 19.3504 79.7228 20.5699 78.6707 21.0157L67.9415 25.5682C68.3788 25.9723 68.8899 26.2982 69.4562 26.5291C70.6968 27.0349 72.0597 27.0232 73.2912 26.5012C74.4307 26.0185 75.3491 25.134 75.8739 24.0114C76.3597 22.9721 77.5936 22.5263 78.6295 23.0136C79.6654 23.501 80.1097 24.739 79.6239 25.7784C78.6641 27.8293 76.9858 29.4463 74.9048 30.3309C73.7586 30.8181 72.55 31.0607 71.3414 31.0607ZM69.3871 17.237C68.1557 17.7613 67.198 18.7337 66.6939 19.9786C66.4635 20.5468 66.3415 21.1427 66.3253 21.7387L74.7368 18.1701C74.2995 17.7659 73.7862 17.4495 73.2221 17.2093C72.5361 16.9182 71.0559 16.5256 69.3871 17.237Z" fill="white"/>
<path d="M55.5406 14.3467C54.3262 14.3467 53.3432 15.3084 53.3432 16.4964C53.3432 21.7621 48.9622 26.0479 43.5799 26.0479C38.1973 26.0479 33.8163 21.7621 33.8163 16.4964C33.8163 15.3084 32.8334 14.3467 31.6189 14.3467C30.4047 14.3467 29.4215 15.3084 29.4215 16.4964C29.4215 21.7621 25.0407 26.0479 19.6582 26.0479C14.2757 26.0479 9.8948 21.7621 9.8948 16.4964C9.8948 15.3084 8.91176 14.3467 7.69739 14.3467C6.48304 14.3467 5.5 15.3084 5.5 16.4964C5.5 24.1336 11.8516 30.3475 19.6582 30.3475C24.6868 30.3475 29.107 27.7679 31.6189 23.8938C34.1311 27.7679 38.5536 30.3475 43.5799 30.3475C51.3864 30.3475 57.7381 24.1336 57.7381 16.4964C57.7381 15.3084 56.7548 14.3467 55.5406 14.3467Z" fill="white"/>
</svg>
